<?xml version="1.0" encoding="UTF-8"?>
<!DOCTYPE svg PUBLIC "-//W3C//DTD SVG 1.1//EN" "http://www.w3.org/Graphics/SVG/1.1/DTD/svg11.dtd">
<!-- Creator: CorelDRAW X5 -->
<svg xmlns="http://www.w3.org/2000/svg" xml:space="preserve" width="50mm" height="50mm" style="shape-rendering:geometricPrecision; text-rendering:geometricPrecision; image-rendering:optimizeQuality; fill-rule:evenodd; clip-rule:evenodd"
viewBox="0 0 5000 5000"
 xmlns:xlink="http://www.w3.org/1999/xlink">
 <defs>
  <style type="text/css">
   <![CDATA[
    .fil0 {fill:none}
    .fil1 {fill:white;fill-rule:nonzero}
   ]]>
  </style>
 </defs>
 <g id="Layer_x0020_1">
  <metadata id="CorelCorpID_0Corel-Layer"/>
  <g id="_229951880">
   <rect class="fil0" width="5000" height="5000"/>
   <path class="fil1" d="M2168 1250c258,0 493,105 662,275l0 0 0 0c170,170 275,404 275,662 0,259 -105,493 -275,662l-1 1c-170,170 -404,275 -662,275 -259,0 -493,-105 -663,-275 -170,-170 -275,-404 -275,-663 0,-259 105,-493 275,-662l1 -1c170,-170 404,-275 662,-275zm474 464c-121,-121 -288,-196 -474,-196 -185,0 -353,75 -474,196 -121,121 -196,289 -196,474 0,185 75,352 196,474 121,121 289,196 474,196 185,0 353,-75 474,-196 121,-121 196,-289 196,-474 0,-185 -75,-353 -196,-473l-1 -1zm193 936l935 909 -186 191 -935 -909 186 -191z"/>
  </g>
 </g>
</svg>
