<?xml version="1.0" encoding="UTF-8"?>
<!DOCTYPE svg PUBLIC "-//W3C//DTD SVG 1.1//EN" "http://www.w3.org/Graphics/SVG/1.1/DTD/svg11.dtd">
<!-- Creator: CorelDRAW X5 -->
<svg xmlns="http://www.w3.org/2000/svg" xml:space="preserve" width="50mm" height="50mm" style="shape-rendering:geometricPrecision; text-rendering:geometricPrecision; image-rendering:optimizeQuality; fill-rule:evenodd; clip-rule:evenodd"
viewBox="0 0 5000 5000"
 xmlns:xlink="http://www.w3.org/1999/xlink">
 <defs>
  <style type="text/css">
   <![CDATA[
    .fil0 {fill:none}
    .fil1 {fill:#F0F0F0}
   ]]>
  </style>
 </defs>
 <g id="Layer_x0020_1">
  <metadata id="CorelCorpID_0Corel-Layer"/>
  <g id="_228721384">
   <rect class="fil0" x="8" y="8" width="4992" height="4992"/>
   <g>
    <path class="fil1" d="M1972 2170l1064 0c299,0 440,184 423,509l0 740c0,109 -42,209 -165,209 -127,0 -183,-105 -183,-209l0 -744 -74 0 -4 1285 -1060 0 0 -1285 -74 0 0 744c0,104 -69,209 -178,209 -97,0 -173,-97 -173,-209l0 -743c0,-293 164,-507 423,-507z"/>
    <ellipse class="fil1" cx="2503" cy="1551" rx="478" ry="503"/>
   </g>
  </g>
 </g>
</svg>
