<?xml version="1.0" encoding="UTF-8"?>
<!DOCTYPE svg PUBLIC "-//W3C//DTD SVG 1.1//EN" "http://www.w3.org/Graphics/SVG/1.1/DTD/svg11.dtd">
<!-- Creator: CorelDRAW X5 -->
<svg xmlns="http://www.w3.org/2000/svg" xml:space="preserve" width="50mm" height="50mm" style="shape-rendering:geometricPrecision; text-rendering:geometricPrecision; image-rendering:optimizeQuality; fill-rule:evenodd; clip-rule:evenodd"
viewBox="0 0 5000 5000"
 xmlns:xlink="http://www.w3.org/1999/xlink">
 <defs>
  <style type="text/css">
   <![CDATA[
    .fil0 {fill:none}
    .fil1 {fill:#F0F0F0}
   ]]>
  </style>
 </defs>
 <g id="Layer_x0020_1">
  <metadata id="CorelCorpID_0Corel-Layer"/>
  <g id="_425545968">
   <rect class="fil0" width="5000" height="5000"/>
   <g>
    <path class="fil1" d="M2190 2901c120,0 217,97 217,216 0,119 -97,216 -217,216 -120,0 -217,-97 -217,-216 0,-119 97,-216 217,-216z"/>
    <path class="fil1" d="M2810 2901c120,0 217,97 217,216 0,119 -97,216 -217,216 -120,0 -217,-97 -217,-216 0,-119 97,-216 217,-216z"/>
    <path class="fil1" d="M1569 2901c120,0 217,97 217,216 0,119 -97,216 -217,216 -120,0 -217,-97 -217,-216 0,-119 97,-216 217,-216z"/>
    <path class="fil1" d="M3431 2901c120,0 217,97 217,216 0,119 -97,216 -217,216 -120,0 -217,-97 -217,-216 0,-119 97,-216 217,-216z"/>
    <path class="fil1" d="M1879 3518c120,0 217,97 217,216 0,119 -97,216 -217,216 -120,0 -217,-97 -217,-216 0,-119 97,-216 217,-216z"/>
    <path class="fil1" d="M2500 3518c120,0 217,97 217,216 0,119 -97,216 -217,216 -120,0 -217,-97 -217,-216 0,-119 97,-216 217,-216z"/>
    <path class="fil1" d="M3121 3518c120,0 217,97 217,216 0,119 -97,216 -217,216 -120,0 -217,-97 -217,-216 0,-119 97,-216 217,-216z"/>
    <path class="fil1" d="M1259 2284c120,0 217,97 217,216 0,119 -97,216 -217,216 -120,0 -217,-97 -217,-216 0,-119 97,-216 217,-216z"/>
    <path class="fil1" d="M1879 2284c120,0 217,97 217,216 0,119 -97,216 -217,216 -120,0 -217,-97 -217,-216 0,-119 97,-216 217,-216z"/>
    <path class="fil1" d="M2500 2284c120,0 217,97 217,216 0,119 -97,216 -217,216 -120,0 -217,-97 -217,-216 0,-119 97,-216 217,-216z"/>
    <path class="fil1" d="M3121 2284c120,0 217,97 217,216 0,119 -97,216 -217,216 -120,0 -217,-97 -217,-216 0,-119 97,-216 217,-216z"/>
    <path class="fil1" d="M3741 2284c120,0 217,97 217,216 0,119 -97,216 -217,216 -120,0 -217,-97 -217,-216 0,-119 97,-216 217,-216z"/>
    <path class="fil1" d="M1569 1667c120,0 217,97 217,216 0,119 -97,216 -217,216 -120,0 -217,-97 -217,-216 0,-119 97,-216 217,-216z"/>
    <path class="fil1" d="M2190 1666c60,0 114,24 154,63 39,39 64,93 64,153 0,60 -24,114 -64,153 -39,39 -94,63 -154,63 -60,0 -114,-24 -153,-63 -39,-39 -64,-93 -64,-153 0,-60 24,-114 64,-153 39,-39 94,-63 153,-63z"/>
    <path class="fil1" d="M2810 1666c60,0 114,24 154,63 39,39 64,93 64,153 0,60 -24,114 -64,153 -39,39 -94,63 -154,63 -60,0 -114,-24 -154,-63 -39,-39 -64,-93 -64,-153 0,-60 24,-114 64,-153 39,-39 94,-63 154,-63z"/>
    <path class="fil1" d="M3431 1667c120,0 217,97 217,216 0,119 -97,216 -217,216 -120,0 -217,-97 -217,-216 0,-119 97,-216 217,-216z"/>
    <path class="fil1" d="M1879 1050c120,0 217,97 217,216 0,119 -97,216 -217,216 -120,0 -217,-97 -217,-216 0,-119 97,-216 217,-216z"/>
    <path class="fil1" d="M2500 1050c120,0 217,97 217,216 0,119 -97,216 -217,216 -120,0 -217,-97 -217,-216 0,-119 97,-216 217,-216z"/>
    <path class="fil1" d="M3121 1050c120,0 217,97 217,216 0,119 -97,216 -217,216 -120,0 -217,-97 -217,-216 0,-119 97,-216 217,-216z"/>
   </g>
  </g>
 </g>
</svg>
