<?xml version="1.0" encoding="UTF-8"?>
<!DOCTYPE svg PUBLIC "-//W3C//DTD SVG 1.1//EN" "http://www.w3.org/Graphics/SVG/1.1/DTD/svg11.dtd">
<!-- Creator: CorelDRAW X5 -->
<svg xmlns="http://www.w3.org/2000/svg" xml:space="preserve" width="50mm" height="50mm" style="shape-rendering:geometricPrecision; text-rendering:geometricPrecision; image-rendering:optimizeQuality; fill-rule:evenodd; clip-rule:evenodd"
viewBox="0 0 5000 5000"
 xmlns:xlink="http://www.w3.org/1999/xlink">
 <defs>
  <style type="text/css">
   <![CDATA[
    .fil0 {fill:none}
    .fil1 {fill:#F0F0F0}
   ]]>
  </style>
 </defs>
 <g id="Layer_x0020_1">
  <metadata id="CorelCorpID_0Corel-Layer"/>
  <g id="_232933968">
   <rect class="fil0" x="8" y="8" width="4992" height="4992"/>
   <path class="fil1" d="M1435 1423l245 0 0 233c0,66 74,146 152,146 80,0 162,-67 160,-146l-5 -233 1030 0 0 233c0,85 86,146 155,146 76,0 157,-68 157,-146l0 -233 240 0c98,0 183,80 183,178l0 2139c0,98 -80,178 -178,178l-2139 0c-98,0 -178,-80 -178,-178l0 -2139c0,-98 80,-178 178,-178zm0 802l2139 0 0 1426c0,63 -41,89 -89,89l-1961 0c-52,0 -89,-36 -89,-89l0 -1426zm267 1070l267 0 0 267 -267 0 0 -267zm446 0l267 0 0 267 -267 0 0 -267zm446 0l267 0 0 267 -267 0 0 -267zm-891 -446l267 0 0 267 -267 0 0 -267zm446 0l267 0 0 267 -267 0 0 -267zm446 0l267 0 0 267 -267 0 0 -267zm446 0l267 0 0 267 -267 0 0 -267zm-891 -446l287 0 0 267 -287 0 0 -267zm446 0l267 0 0 267 -267 0 0 -267zm446 0l267 0 0 267 -267 0 0 -267zm-1125 -1282c-20,-20 -48,-33 -79,-33 -31,0 -59,13 -79,33 -20,20 -33,48 -33,79l0 446c0,31 13,59 33,79 20,20 48,33 79,33 31,0 58,-13 79,-33 20,-20 33,-48 33,-79l0 -446c0,-31 -13,-58 -33,-79zm1148 -32c0,0 0,0 0,0zm189 32c-20,-20 -48,-33 -79,-33 -31,0 -59,13 -79,33l0 0c-20,20 -33,48 -33,79l0 446c0,31 13,59 33,79l0 0c20,20 48,33 79,33 31,0 59,-13 79,-33 20,-20 33,-48 33,-79l0 -446c0,-31 -13,-58 -33,-79z"/>
  </g>
 </g>
</svg>
