<?xml version="1.0" encoding="UTF-8"?>
<!DOCTYPE svg PUBLIC "-//W3C//DTD SVG 1.1//EN" "http://www.w3.org/Graphics/SVG/1.1/DTD/svg11.dtd">
<!-- Creator: CorelDRAW X5 -->
<svg xmlns="http://www.w3.org/2000/svg" xml:space="preserve" width="110.199mm" height="50mm" style="shape-rendering:geometricPrecision; text-rendering:geometricPrecision; image-rendering:optimizeQuality; fill-rule:evenodd; clip-rule:evenodd"
viewBox="0 0 11020 5000"
 xmlns:xlink="http://www.w3.org/1999/xlink">
 <defs>
  <style type="text/css">
   <![CDATA[
    .fil0 {fill:none}
    .fil2 {fill:#C82C2D;fill-rule:nonzero}
    .fil1 {fill:#CF6122;fill-rule:nonzero}
    .fil3 {fill:white;fill-rule:nonzero}
   ]]>
  </style>
 </defs>
 <g id="Layer_x0020_1">
  <metadata id="CorelCorpID_0Corel-Layer"/>
  <rect class="fil0" x="-36" width="11020" height="5000"/>
  <g id="_416546976">
   <path class="fil1" d="M2596 4167c-1401,-776 -2175,-1659 -1731,-2772 345,-713 939,-696 1712,-153 -2,6 -4,6 -4,13 9,72 18,135 27,193 43,292 69,473 -59,588 -100,90 -217,63 -321,38 -90,-21 -172,-40 -247,0 -30,16 -75,57 -115,120 -28,44 -54,101 -71,169 -21,85 -20,181 0,266 20,85 60,162 117,211 113,97 237,35 367,-30 113,-57 231,-116 324,-35 53,47 78,262 82,512 2,130 1,287 -11,443 -12,156 -33,311 -71,436z"/>
   <path class="fil2" d="M2699 4130c1489,-825 2139,-1871 1725,-2785 -219,-483 -749,-810 -1762,-104 0,1 0,2 0,3 8,66 18,131 27,192 47,320 76,518 -88,665 -136,122 -276,89 -402,59 -72,-17 -138,-32 -182,-8 -20,11 -52,40 -82,89 -23,37 -45,85 -60,144 -18,72 -17,153 1,226 16,68 46,128 88,164 67,57 165,9 267,-42 140,-70 286,-143 424,-22 75,65 108,305 112,576 5,310 -24,668 -68,844z"/>
  </g>
  <path class="fil3" d="M5604 1421c-11,-12 -27,-25 -48,-39 -21,-14 -46,-27 -74,-39 -28,-12 -59,-22 -93,-30 -34,-8 -68,-12 -104,-12 -79,0 -137,14 -174,43 -37,29 -56,69 -56,120 0,29 6,52 17,71 12,18 30,34 54,48 24,14 55,26 91,37 37,11 79,22 128,34 60,14 114,31 162,48 48,18 89,39 122,65 33,26 59,57 77,94 18,37 27,82 27,135 0,60 -11,111 -34,155 -23,43 -54,78 -93,106 -39,27 -85,47 -137,60 -52,13 -108,19 -168,19 -90,0 -177,-14 -260,-41 -84,-27 -159,-67 -227,-119l85 -160c14,14 35,30 62,48 27,18 59,34 95,49 36,15 75,28 117,38 42,11 86,16 131,16 73,0 130,-13 170,-38 40,-26 60,-63 60,-113 0,-30 -8,-55 -23,-75 -15,-20 -36,-37 -64,-52 -28,-15 -62,-29 -101,-41 -40,-12 -85,-25 -136,-38 -59,-16 -110,-32 -154,-49 -44,-17 -80,-38 -109,-62 -29,-24 -51,-53 -66,-86 -15,-33 -22,-72 -22,-119 0,-58 11,-109 33,-154 22,-45 52,-83 91,-113 38,-31 83,-54 135,-69 52,-16 109,-23 170,-23 80,0 153,13 221,38 68,26 127,57 178,95l-85 153zm665 -278l163 0 466 1180 -196 0 -125 -321 -456 0 -123 321 -198 0 469 -1180zm271 721l-190 -507 -196 507 386 0zm690 -372l0 831 -186 0 0 -1180 146 0 675 851 0 -849 188 0 0 1179 -155 0 -668 -831zm1787 -71c-11,-12 -27,-25 -48,-39 -21,-14 -46,-27 -74,-39 -28,-12 -59,-22 -93,-30 -34,-8 -68,-12 -104,-12 -79,0 -137,14 -174,43 -37,29 -56,69 -56,120 0,29 6,52 17,71 12,18 30,34 54,48 24,14 55,26 91,37 37,11 79,22 128,34 60,14 114,31 162,48 48,18 89,39 122,65 33,26 59,57 77,94 18,37 27,82 27,135 0,60 -11,111 -34,155 -23,43 -54,78 -93,106 -39,27 -85,47 -137,60 -52,13 -108,19 -168,19 -90,0 -177,-14 -260,-41 -84,-27 -159,-67 -227,-119l85 -160c14,14 35,30 62,48 27,18 59,34 95,49 36,15 75,28 117,38 42,11 86,16 131,16 73,0 130,-13 170,-38 40,-26 60,-63 60,-113 0,-30 -8,-55 -23,-75 -15,-20 -36,-37 -64,-52 -28,-15 -62,-29 -101,-41 -40,-12 -85,-25 -136,-38 -59,-16 -110,-32 -154,-49 -44,-17 -80,-38 -109,-62 -29,-24 -51,-53 -66,-86 -15,-33 -22,-72 -22,-119 0,-58 11,-109 33,-154 22,-45 52,-83 91,-113 38,-31 83,-54 136,-69 52,-16 109,-23 170,-23 80,0 153,13 221,38 68,26 127,57 178,95l-85 153zm236 760l717 -873 -700 0 0 -165 918 0 0 143 -700 873 702 0 0 165 -936 0 0 -143zm-4347 1685l0 -1180 495 0c53,0 102,11 147,33 45,22 83,51 116,87 32,36 57,77 76,123 18,46 27,93 27,140 0,50 -9,98 -26,144 -17,46 -41,87 -72,123 -31,36 -68,65 -112,86 -44,22 -92,32 -145,32l-319 0 0 411 -186 0zm186 -575l308 0c27,0 51,-6 72,-17 22,-11 40,-27 56,-47 16,-20 28,-43 37,-70 9,-27 13,-56 13,-88 0,-33 -5,-63 -15,-90 -10,-27 -24,-50 -42,-69 -18,-19 -38,-34 -61,-45 -23,-11 -46,-16 -71,-16l-298 0 0 441zm1197 -605l163 0 466 1180 -196 0 -125 -321 -456 0 -123 321 -198 0 469 -1180zm271 721l-189 -507 -196 507 386 0zm504 459l0 -1180 514 0c53,0 102,11 147,33 45,22 83,51 116,87 32,36 57,77 76,123 18,46 27,93 27,140 0,40 -6,78 -17,115 -11,37 -27,70 -47,101 -20,31 -44,58 -73,81 -29,23 -60,40 -95,51l278 449 -211 0 -256 -411 -273 0 0 411 -186 0zm186 -575l326 0c27,0 51,-6 72,-17 22,-12 40,-28 56,-48 16,-21 28,-44 37,-71 9,-27 13,-55 13,-85 0,-30 -5,-58 -16,-85 -11,-27 -24,-50 -42,-70 -17,-20 -37,-36 -60,-47 -23,-12 -46,-18 -71,-18l-316 0 0 441zm1779 -441l-392 0 0 1016 -188 0 0 -1016 -394 0 0 -165 974 0 0 165zm244 -165l326 592 329 -592 205 0 -441 758 0 422 -186 0 0 -426 -437 -755 204 0z"/>
 </g>
</svg>
