<?xml version="1.0" encoding="UTF-8"?>
<!DOCTYPE svg PUBLIC "-//W3C//DTD SVG 1.1//EN" "http://www.w3.org/Graphics/SVG/1.1/DTD/svg11.dtd">
<!-- Creator: CorelDRAW X5 -->
<svg xmlns="http://www.w3.org/2000/svg" xml:space="preserve" width="210mm" height="297mm" style="shape-rendering:geometricPrecision; text-rendering:geometricPrecision; image-rendering:optimizeQuality; fill-rule:evenodd; clip-rule:evenodd"
viewBox="0 0 21000 29700"
 xmlns:xlink="http://www.w3.org/1999/xlink">
 <defs>
  <style type="text/css">
   <![CDATA[
    .fil0 {fill:white;fill-rule:nonzero}
   ]]>
  </style>
 </defs>
 <g id="Layer_x0020_1">
  <metadata id="CorelCorpID_0Corel-Layer"/>
  <path class="fil0" d="M11903 18715l-2823 0c-8,-408 -11,-654 -11,-744 0,-914 151,-1666 453,-2256 302,-593 911,-1255 1818,-1995 907,-737 1451,-1221 1625,-1451 276,-359 412,-760 412,-1194 0,-605 -242,-1122 -726,-1557 -484,-431 -1134,-646 -1954,-646 -790,0 -1451,227 -1984,676 -529,450 -896,1137 -1096,2059l-2853 -355c79,-1323 642,-2445 1685,-3367 1047,-922 2415,-1383 4115,-1383 1784,0 3204,469 4262,1402 1054,933 1583,2018 1583,3261 0,684 -196,1334 -582,1946 -389,612 -1217,1447 -2486,2501 -658,548 -1066,986 -1224,1319 -159,333 -231,926 -215,1784zm-2823 4183l0 -3110 3110 0 0 3110 -3110 0z"/>
 </g>
</svg>
